<svg width="43" height="44" viewBox="0 0 43 44" fill="none" xmlns="http://www.w3.org/2000/svg">
<path d="M19.6773 0C32.4882 0 42.3275 8.81295 42.3275 21.891C42.3275 35.0394 32.4889 43.995 19.6773 43.995H5.30901C2.40719 43.995 0 42.0761 0 38.7356V5.47242C0 2.1319 2.40656 0 5.30901 0H19.6773Z" fill="#FF6900"/>
<path d="M6.89799 43.9994C10.5735 41.9643 12.3968 40.0995 13.6601 38.3491C16.1214 39.4458 18.4902 39.9172 20.6246 39.9172C24.6257 39.9172 28.0366 38.0744 29.8147 34.7867C31.6449 33.6881 32.8585 31.4298 32.9346 29.8164C34.0747 28.3822 34.2853 26.5721 33.9352 25.3503C33.8516 25.0586 33.6146 25.0505 33.2048 25.3C29.5991 27.4614 26.1077 28.4916 22.7754 28.4916C20.7547 28.4916 18.6825 28.1704 16.4777 27.5324C16.3206 25.1686 15.8348 23.1876 15.6544 21.9865C15.3967 20.4001 15.7631 19.2267 17.5041 19.2267C18.7812 19.2267 21.1444 19.551 23.0324 20.4096C24.9029 21.2599 26.0153 22.9343 26.7928 22.9343C27.1083 22.9343 27.4408 22.7382 27.4408 22.0701C27.4408 20.7163 26.9581 18.5366 26.3579 17.7604C28.1076 17.6605 29.4979 17.6781 30.2798 17.7667C31.9089 18.0501 31.9855 18.8678 32.3067 19.4008C32.6272 19.9338 33.1715 20.1663 33.8258 20.1663C35.0376 20.1663 35.793 19.5416 35.793 17.2852C35.793 12.3295 32.665 9.92792 29.3835 9.92792C26.6897 9.92792 25.6495 10.5206 23.0915 10.5206C21.277 10.5206 19.7736 6.82874 17.7115 6.34291C16.8008 4.31722 14.7581 4.08845 13.4998 5.10663C12.3572 4.4115 10.571 4.78609 10.4975 6.06951C9.18324 5.66286 7.48564 6.37182 8.21723 8.09896C5.00366 8.19009 4.40407 11.0316 6.58436 11.349C3.77744 12.9378 5.06023 15.6813 7.41588 15.098C7.5818 17.047 8.37184 20.1933 8.37184 22.3667C8.37184 25.3886 7.00106 26.09 5.12748 26.09C3.64671 26.09 1.47333 25.552 0.000732422 25.1322V27.2389C1.49093 27.6098 3.7259 28.0849 5.40276 28.0849C8.35613 28.0849 9.99465 26.3521 9.99465 23.0524C9.99465 19.0004 8.69804 15.3168 9.12354 13.0089L9.01983 12.875C7.54409 14.4148 6.58499 14.0076 6.48003 13.5117C6.26948 12.5186 7.99725 11.3037 8.98401 10.8814C9.00286 10.8166 9.028 10.7488 9.05503 10.6802C8.13175 10.8229 7.04694 10.706 7.00923 10.0448C6.96461 9.26107 8.53714 8.56154 10.5924 8.73564C10.6313 8.70296 10.6716 8.67027 10.7111 8.63696C10.5817 8.58543 10.444 8.52069 10.2706 8.43144C9.73947 8.15804 9.61 7.703 9.7841 7.37303C9.97454 7.01038 10.5553 6.86834 11.0273 6.8784C11.767 6.89411 12.3962 7.07323 12.8562 7.2599C12.9084 7.2379 12.9606 7.21591 13.0102 7.19705C12.8393 7.06381 12.691 6.91799 12.6042 6.76966C12.4773 6.55157 12.4458 6.25177 12.6922 6.05756C12.9794 5.83067 13.7091 5.75022 14.3684 6.34919C14.5048 6.47301 14.6205 6.59243 14.7248 6.70807C14.7983 6.69424 14.8719 6.67979 14.9467 6.66785C14.8379 6.50004 14.7512 6.32468 14.7229 6.16253C14.6846 5.94003 14.7569 5.70057 15.0183 5.61635C15.3037 5.52396 15.6644 5.6704 15.8523 5.9482C16.0535 6.24612 16.176 6.61191 16.2533 6.87274C14.7996 7.04181 10.9437 7.92235 10.9437 12.5827C10.9437 17.1275 14.7191 21.901 14.7191 28.9447C14.7129 31.504 14.1485 34.0714 11.828 37.0625C10.0361 39.3723 7.18962 41.601 2.75109 43.4306C3.51284 43.8039 4.38584 44 5.30975 44H6.89799V43.9994ZM24.6628 15.4035C25.1065 14.0798 25.493 13.0811 26.2133 12.3194C26.9726 11.5168 27.816 11.2666 29.667 11.2666C32.2231 11.2666 34.3588 13.8504 34.3588 17.4631C34.3588 17.9999 33.6385 17.9961 33.4072 17.5052C32.5374 15.9698 31.3595 15.7492 29.5048 15.6128C28.1359 15.5323 26.4842 15.6486 24.9802 15.7127C24.6986 15.7265 24.62 15.5304 24.6628 15.4035ZM16.5079 29.8975C18.5304 30.4594 21.3267 30.7592 23.6459 30.5964C27.723 30.3105 30.7832 28.7926 32.5059 27.6871C31.4714 30.301 27.5891 31.9251 23.825 32.3845C23.8005 32.575 23.7722 32.7604 23.7382 32.9401C26.5615 32.7899 29.2427 31.8723 30.4583 31.0345C29.7631 33.6057 26.3101 34.639 23.1745 34.7879C23.0859 34.9897 22.9928 35.1808 22.896 35.3611C24.7219 35.3938 26.4697 35.0551 27.5118 34.727C26.5741 36.5163 23.3398 37.9299 20.0451 37.9299C18.4255 37.9299 16.4054 37.6143 14.6519 36.7797C15.919 34.4624 16.4073 32.0872 16.5079 29.8975Z" fill="black"/>
<path d="M0 33.6648C1.54487 33.3581 3.06524 33.0734 3.06524 33.0734L3.25882 32.2406C2.56117 32.2054 1.17908 32.2217 0 32.2532V33.6648Z" fill="black"/>
<path d="M16.6505 8.79347C17.1904 8.61183 17.966 9.14418 18.3808 9.97883C18.7956 10.8135 18.6932 11.6406 18.1545 11.8185C17.6197 12.0077 16.8472 11.4753 16.4299 10.6369C16.3733 10.5238 16.3294 10.4112 16.2916 10.3006L16.3859 10.2742C16.5588 10.4383 16.7655 10.4835 16.9032 10.3949C17.093 10.2705 17.0729 9.93924 16.9132 9.65327C16.7988 9.41946 16.5342 9.17372 16.3149 9.19257L16.2766 9.14292C16.3576 8.97574 16.4821 8.85192 16.6505 8.79347ZM20.4335 17.1903C18.0169 16.6593 15.3709 15.9578 13.9605 13.8838C13.9341 13.8454 13.8863 13.8278 13.8411 13.8404C13.7965 13.853 13.7644 13.8938 13.7625 13.9403C13.7575 14.0535 13.7726 14.1773 13.7977 14.3011L13.606 14.3734C13.2339 13.8498 13.1585 13.2131 13.5268 12.7562C14.0579 12.0982 15.1352 12.166 15.7781 12.5714L15.6964 12.7487C15.3514 12.6909 15.0227 12.6908 14.7662 12.8467C14.5482 12.9793 14.518 13.1761 14.6525 13.4262C15.824 15.604 19.2299 16.076 23.2775 15.7611C23.6955 15.7284 23.7916 15.5399 23.8457 15.3388C24.197 13.9366 24.8343 12.6871 25.7834 11.7336C25.0455 11.8373 24.3592 11.8606 23.7602 11.8933C21.6698 12.0253 20.4744 11.7506 20.101 11.4527L20.1695 11.271C20.392 11.3477 20.6227 11.3647 20.6705 11.3C20.7358 11.2113 20.6855 11.156 20.5837 11.0668C20.1871 10.6947 18.4034 8.867 18.4072 8.87769C18.2142 7.33156 15.9636 7.27625 15.0667 8.79661L14.7619 8.71491C14.8505 8.38117 14.9837 8.10965 15.1082 7.91167C13.2283 8.33654 12.1592 10.0228 11.9656 11.6532C11.1322 18.6573 21.7559 17.0389 24.7916 19.8439C24.8494 19.8892 24.9933 20.0947 25.0977 19.9646C25.2152 19.5831 23.8777 17.9521 20.4335 17.1903Z" fill="white"/>
<path d="M32.5034 27.6833C30.7813 28.7876 27.718 30.3079 23.6433 30.5939C21.3254 30.7567 18.526 30.455 16.5047 29.8938C16.4739 30.5675 16.4054 31.2639 16.2898 31.9659C17.4287 32.2588 19.4575 32.6454 22.3838 32.7277C22.2537 33.5146 21.4543 36.1851 19.4097 37.9116C23.1374 38.0681 26.5156 36.6182 27.5087 34.7232C26.4672 35.0513 24.7175 35.3901 22.8929 35.3574C22.9897 35.177 23.0827 34.9866 23.1713 34.7842C26.3045 34.6359 29.7606 33.6001 30.4558 31.0307C29.2408 31.8679 26.5571 32.7862 23.7357 32.9364C23.7697 32.7572 23.798 32.5712 23.8225 32.3808C27.5841 31.9213 31.4689 30.2954 32.5034 27.6833Z" fill="white"/>
</svg>
