<svg width="192" height="22" viewBox="0 0 192 22" fill="none" xmlns="http://www.w3.org/2000/svg">
<path d="M191.371 14.9822L185.523 2.2279C184.855 0.835278 183.964 0.222748 182.627 0.222748H182.405C181.012 0.222748 180.121 0.835278 179.453 2.2279L173.605 14.9822C173.048 16.263 173.438 17.3772 174.607 17.8226C175.665 18.2124 176.668 17.9897 177.281 16.7646L178.617 13.9799C179.787 14.3697 181.291 14.5924 182.628 14.5924C184.076 14.5924 185.413 14.3697 186.471 13.9799L187.752 16.7646C188.309 17.9897 189.423 18.2129 190.425 17.8226C191.483 17.3772 191.928 16.2078 191.371 14.9822ZM182.515 10.7492C181.624 10.7492 180.677 10.6378 179.953 10.4151L182.46 4.84559L184.966 10.4151C184.242 10.6378 183.407 10.7492 182.515 10.7492Z" fill="black"/>
<path d="M170.319 13.8128H169.205V2.11652C169.205 0.779585 168.202 0 167.033 0C165.863 0 164.916 0.779585 164.916 2.11652V13.8128H157.453V2.11652C157.453 0.779585 156.506 0 155.281 0C154.055 0 153.108 0.779585 153.108 2.11652V15.8732C153.108 17.0425 153.888 17.9897 155.225 17.9897H168.202V19.8835C168.202 21.2204 169.149 22 170.319 22C171.544 22 172.435 21.2204 172.435 19.8835V15.9289C172.435 14.5367 171.599 13.8128 170.319 13.8128Z" fill="black"/>
<path d="M148.708 13.8128H147.595V2.11652C147.595 0.779585 146.592 0 145.422 0C144.253 0 143.306 0.779585 143.306 2.11652V13.8128H135.843V2.11652C135.843 0.779585 134.896 0 133.67 0C132.445 0 131.498 0.779585 131.498 2.11652V15.8732C131.498 17.0425 132.278 17.9897 133.615 17.9897H146.592V19.8835C146.592 21.2204 147.539 22 148.708 22C149.933 22 150.825 21.2204 150.825 19.8835V15.9289C150.825 14.5367 149.99 13.8128 148.708 13.8128Z" fill="black"/>
<path d="M124.703 0.167054H124.536C123.255 0.167054 122.42 0.779584 121.529 2.06084L114.511 12.0304V2.11653C114.511 0.779585 113.62 0 112.45 0C111.225 0 110.333 0.779585 110.333 2.11653V15.5391C110.333 16.9874 111.28 17.934 112.728 17.934H112.951C114.288 17.934 115.179 17.2658 116.014 16.0402L123.032 6.07064V16.0402C123.032 17.3772 123.923 18.1567 125.093 18.1567C126.263 18.1567 127.154 17.3772 127.154 16.0402V2.562C127.154 1.1142 126.263 0.167054 124.703 0.167054Z" fill="black"/>
<path d="M103.762 0.167053H91.7313C90.3386 0.167053 89.6147 1.11369 89.6147 2.28358V16.0402C89.6147 17.3772 90.6171 18.1567 91.787 18.1567C92.9563 18.1567 93.9035 17.3772 93.9035 16.0402V4.34442H101.589V16.0407C101.589 17.3777 102.536 18.1573 103.762 18.1573C104.931 18.1573 105.934 17.3777 105.934 15.985V2.22789C105.934 1.1142 105.154 0.167053 103.762 0.167053Z" fill="black"/>
<path d="M72.628 0C67.4483 0 63.4937 3.89894 63.4937 9.07863C63.4937 14.314 67.4483 18.1573 72.628 18.1573C77.752 18.1573 81.7623 14.2026 81.7623 9.02294C81.7061 3.78757 77.752 0 72.628 0ZM72.628 14.0356C69.7875 14.0356 67.7824 11.9191 67.7824 9.02294C67.7824 6.18252 69.8432 4.066 72.628 4.066C75.4684 4.066 77.4735 6.18252 77.4735 9.02294C77.4735 11.9191 75.5241 14.0356 72.628 14.0356Z" fill="black"/>
<path d="M60.4863 13.7571H59.3726V2.22788C59.3726 1.05851 58.593 0.111359 57.2561 0.111359H47.3979C46.228 0.111359 45.4484 0.890943 45.4484 2.22788V5.01262C45.4484 7.01778 45.3927 8.57695 45.0586 10.248C44.7245 11.8634 44.279 12.9214 43.666 13.7566H43.1648C41.7722 13.7566 41.104 14.6476 41.104 15.8732V19.8278C41.104 21.1647 42.0506 21.9443 43.2205 21.9443C44.4456 21.9443 45.3371 21.1647 45.3371 19.8278V17.934H58.3141V19.8278C58.3141 21.1647 59.2607 21.9443 60.4306 21.9443C61.6557 21.9443 62.5472 21.1647 62.5472 19.8278V15.8732C62.6028 14.6481 61.9341 13.7571 60.4863 13.7571ZM55.0839 13.7571H48.0661C48.5116 12.8105 48.8457 11.9747 49.1241 10.7497C49.4025 9.41273 49.5139 8.07629 49.5696 6.34956L49.6253 4.28872H55.0834V13.7571H55.0839Z" fill="black"/>
<path d="M31.5799 0C26.4002 0 22.4456 3.89894 22.4456 9.07863C22.4456 14.314 26.4002 18.1573 31.5799 18.1573C36.7039 18.1573 40.7142 14.2026 40.7142 9.02294C40.7142 3.78757 36.7596 0 31.5799 0ZM31.5799 14.0356C28.7394 14.0356 26.7343 11.9191 26.7343 9.02294C26.7343 6.18252 28.7951 4.066 31.5799 4.066C34.4203 4.066 36.4255 6.18252 36.4255 9.02294C36.4255 11.9191 34.5322 14.0356 31.5799 14.0356Z" fill="black"/>
<path d="M19.3266 13.7571H18.2129V2.22788C18.2129 1.05851 17.4334 0.111359 16.0964 0.111359H6.23821C5.06883 0.111359 4.28873 0.890943 4.28873 2.22788V5.01262C4.28873 7.01778 4.28873 8.57695 3.89894 10.248C3.56483 11.8634 3.11936 12.9214 2.50632 13.7566H2.06084C0.668217 13.7566 0 14.6476 0 15.8732V19.8278C0 21.1647 0.946636 21.9443 2.11652 21.9443C3.34158 21.9443 4.23305 21.1647 4.23305 19.8278V17.934H17.2106V19.8278C17.2106 21.1647 18.1573 21.9443 19.3271 21.9443C20.5522 21.9443 21.4437 21.1647 21.4437 19.8278V15.8732C21.4432 14.6481 20.7749 13.7571 19.3266 13.7571ZM13.9242 13.7571H6.90642C7.3519 12.8105 7.686 11.9747 7.96443 10.7497C8.24285 9.41273 8.35422 8.07629 8.4099 6.34956L8.46559 4.28872H13.9237L13.9242 13.7571Z" fill="black"/>
</svg>
